<?xml version="1.0" encoding="UTF-8" standalone="no"?><!DOCTYPE svg PUBLIC "-//W3C//DTD SVG 1.1//EN" "http://www.w3.org/Graphics/SVG/1.1/DTD/svg11.dtd"><svg width="100%" height="100%" viewBox="0 0 800 800" version="1.1" xmlns="http://www.w3.org/2000/svg" xmlns:xlink="http://www.w3.org/1999/xlink" xml:space="preserve" xmlns:serif="http://www.serif.com/" style="fill-rule:evenodd;clip-rule:evenodd;stroke-linejoin:round;stroke-miterlimit:2;"><g id="Page-1"><g id="Dribbble-Light-Preview"><g id="icons"><path id="apple---173-" serif:id="apple-[#173]" d="M522.835,127.718c29.163,-33.799 48.821,-80.879 43.441,-127.718c-42.025,1.6 -92.868,26.84 -123.001,60.599c-27.06,29.96 -50.682,77.839 -44.331,123.759c46.879,3.479 94.729,-22.8 123.891,-56.64m105.124,297.276c1.173,121.078 110.828,161.358 112.041,161.878c-0.89,2.84 -17.514,57.399 -57.76,113.798c-34.825,48.72 -70.945,97.239 -127.855,98.279c-55.899,1 -73.898,-31.76 -137.846,-31.76c-63.908,0 -83.889,30.72 -136.795,32.76c-54.928,1.96 -96.792,-52.719 -131.86,-101.279c-71.755,-99.318 -126.561,-280.676 -52.946,-403.074c36.565,-60.759 101.888,-99.279 172.833,-100.239c53.917,-1 104.841,34.76 137.806,34.76c32.965,-0 94.85,-43 159.891,-36.68c27.221,1.08 103.667,10.52 152.731,79.359c-3.964,2.36 -91.21,51 -90.24,152.198" style="fill:#fff;"/></g></g></g></svg>