<?xml version="1.0" encoding="UTF-8" standalone="no"?><!DOCTYPE svg PUBLIC "-//W3C//DTD SVG 1.1//EN" "http://www.w3.org/Graphics/SVG/1.1/DTD/svg11.dtd"><svg width="100%" height="100%" viewBox="0 0 82 81" version="1.1" xmlns="http://www.w3.org/2000/svg" xmlns:xlink="http://www.w3.org/1999/xlink" xml:space="preserve" xmlns:serif="http://www.serif.com/" style="fill-rule:evenodd;clip-rule:evenodd;"><rect id="Artboard1" x="0" y="0" width="81.282" height="80.802" style="fill:none;"/><clipPath id="_clip1"><rect x="0" y="0" width="81.282" height="80.802"/></clipPath><g clip-path="url(#_clip1)"><g><path d="M31.719,28.561l0,23.58c0,0.001 0,0.003 0,0.004c0,1.235 1.016,2.25 2.25,2.25c0.397,0 0.787,-0.105 1.13,-0.304l20.4,-11.79c0.697,-0.401 1.128,-1.146 1.128,-1.95c-0,-0.804 -0.431,-1.549 -1.128,-1.95l-20.4,-11.78c-0.343,-0.199 -0.733,-0.304 -1.13,-0.304c-1.232,-0 -2.247,1.012 -2.25,2.244Z" style="fill:#fff;fill-rule:nonzero;"/><circle cx="40.719" cy="40.351" r="38" style="fill:none;stroke:#fff;stroke-width:4px;"/></g></g></svg>